<?xml version="1.0" encoding="UTF-8" standalone="no"?>
<svg width="195px" height="45px" viewBox="0 0 195 45" version="1.1" xmlns="http://www.w3.org/2000/svg" xmlns:xlink="http://www.w3.org/1999/xlink">
    <!-- Generator: Sketch 39.1 (31720) - http://www.bohemiancoding.com/sketch -->
    <title>map-marker-sprite</title>
    <desc>Created with Sketch.</desc>
    <defs>
        <path d="M7.5,15 C11.6421356,15 15,11.6421356 15,7.5 C15,3.35786438 11.6421356,0 7.5,0 C3.35786438,0 0,3.35786438 0,7.5 C0,11.6421356 3.35786438,15 7.5,15 Z" id="path-1"></path>
        <mask id="mask-2" maskContentUnits="userSpaceOnUse" maskUnits="objectBoundingBox" x="0" y="0" width="15" height="15" fill="white">
            <use xlink:href="#path-1"></use>
        </mask>
        <path d="M7.5,45 C11.6421356,45 15,41.6421356 15,37.5 C15,33.3578644 11.6421356,30 7.5,30 C3.35786438,30 0,33.3578644 0,37.5 C0,41.6421356 3.35786438,45 7.5,45 Z" id="path-3"></path>
        <mask id="mask-4" maskContentUnits="userSpaceOnUse" maskUnits="objectBoundingBox" x="0" y="0" width="15" height="15" fill="white">
            <use xlink:href="#path-3"></use>
        </mask>
        <path d="M37.5,15 C41.6421356,15 45,11.6421356 45,7.5 C45,3.35786438 41.6421356,0 37.5,0 C33.3578644,0 30,3.35786438 30,7.5 C30,11.6421356 33.3578644,15 37.5,15 Z" id="path-5"></path>
        <mask id="mask-6" maskContentUnits="userSpaceOnUse" maskUnits="objectBoundingBox" x="0" y="0" width="15" height="15" fill="white">
            <use xlink:href="#path-5"></use>
        </mask>
        <path d="M37.5,45 C41.6421356,45 45,41.6421356 45,37.5 C45,33.3578644 41.6421356,30 37.5,30 C33.3578644,30 30,33.3578644 30,37.5 C30,41.6421356 33.3578644,45 37.5,45 Z" id="path-7"></path>
        <mask id="mask-8" maskContentUnits="userSpaceOnUse" maskUnits="objectBoundingBox" x="0" y="0" width="15" height="15" fill="white">
            <use xlink:href="#path-7"></use>
        </mask>
        <path d="M67.5,15 C71.6421356,15 75,11.6421356 75,7.5 C75,3.35786438 71.6421356,0 67.5,0 C63.3578644,0 60,3.35786438 60,7.5 C60,11.6421356 63.3578644,15 67.5,15 Z" id="path-9"></path>
        <mask id="mask-10" maskContentUnits="userSpaceOnUse" maskUnits="objectBoundingBox" x="0" y="0" width="15" height="15" fill="white">
            <use xlink:href="#path-9"></use>
        </mask>
        <path d="M67.5,45 C71.6421356,45 75,41.6421356 75,37.5 C75,33.3578644 71.6421356,30 67.5,30 C63.3578644,30 60,33.3578644 60,37.5 C60,41.6421356 63.3578644,45 67.5,45 Z" id="path-11"></path>
        <mask id="mask-12" maskContentUnits="userSpaceOnUse" maskUnits="objectBoundingBox" x="0" y="0" width="15" height="15" fill="white">
            <use xlink:href="#path-11"></use>
        </mask>
        <path d="M97.5,15 C101.642136,15 105,11.6421356 105,7.5 C105,3.35786438 101.642136,0 97.5,0 C93.3578644,0 90,3.35786438 90,7.5 C90,11.6421356 93.3578644,15 97.5,15 Z" id="path-13"></path>
        <mask id="mask-14" maskContentUnits="userSpaceOnUse" maskUnits="objectBoundingBox" x="0" y="0" width="15" height="15" fill="white">
            <use xlink:href="#path-13"></use>
        </mask>
        <path d="M97.5,45 C101.642136,45 105,41.6421356 105,37.5 C105,33.3578644 101.642136,30 97.5,30 C93.3578644,30 90,33.3578644 90,37.5 C90,41.6421356 93.3578644,45 97.5,45 Z" id="path-15"></path>
        <mask id="mask-16" maskContentUnits="userSpaceOnUse" maskUnits="objectBoundingBox" x="0" y="0" width="15" height="15" fill="white">
            <use xlink:href="#path-15"></use>
        </mask>
        <path d="M127.5,15 C131.642136,15 135,11.6421356 135,7.5 C135,3.35786438 131.642136,0 127.5,0 C123.357864,0 120,3.35786438 120,7.5 C120,11.6421356 123.357864,15 127.5,15 Z" id="path-17"></path>
        <mask id="mask-18" maskContentUnits="userSpaceOnUse" maskUnits="objectBoundingBox" x="0" y="0" width="15" height="15" fill="white">
            <use xlink:href="#path-17"></use>
        </mask>
        <path d="M127.5,45 C131.642136,45 135,41.6421356 135,37.5 C135,33.3578644 131.642136,30 127.5,30 C123.357864,30 120,33.3578644 120,37.5 C120,41.6421356 123.357864,45 127.5,45 Z" id="path-19"></path>
        <mask id="mask-20" maskContentUnits="userSpaceOnUse" maskUnits="objectBoundingBox" x="0" y="0" width="15" height="15" fill="white">
            <use xlink:href="#path-19"></use>
        </mask>
        <path d="M157.5,15 C161.642136,15 165,11.6421356 165,7.5 C165,3.35786438 161.642136,0 157.5,0 C153.357864,0 150,3.35786438 150,7.5 C150,11.6421356 153.357864,15 157.5,15 Z" id="path-21"></path>
        <mask id="mask-22" maskContentUnits="userSpaceOnUse" maskUnits="objectBoundingBox" x="0" y="0" width="15" height="15" fill="white">
            <use xlink:href="#path-21"></use>
        </mask>
        <path d="M157.5,45 C161.642136,45 165,41.6421356 165,37.5 C165,33.3578644 161.642136,30 157.5,30 C153.357864,30 150,33.3578644 150,37.5 C150,41.6421356 153.357864,45 157.5,45 Z" id="path-23"></path>
        <mask id="mask-24" maskContentUnits="userSpaceOnUse" maskUnits="objectBoundingBox" x="0" y="0" width="15" height="15" fill="white">
            <use xlink:href="#path-23"></use>
        </mask>
        <path d="M187.5,15 C191.642136,15 195,11.6421356 195,7.5 C195,3.35786438 191.642136,0 187.5,0 C183.357864,0 180,3.35786438 180,7.5 C180,11.6421356 183.357864,15 187.5,15 Z" id="path-25"></path>
        <mask id="mask-26" maskContentUnits="userSpaceOnUse" maskUnits="objectBoundingBox" x="0" y="0" width="15" height="15" fill="white">
            <use xlink:href="#path-25"></use>
        </mask>
        <path d="M187.5,45 C191.642136,45 195,41.6421356 195,37.5 C195,33.3578644 191.642136,30 187.5,30 C183.357864,30 180,33.3578644 180,37.5 C180,41.6421356 183.357864,45 187.5,45 Z" id="path-27"></path>
        <mask id="mask-28" maskContentUnits="userSpaceOnUse" maskUnits="objectBoundingBox" x="0" y="0" width="15" height="15" fill="white">
            <use xlink:href="#path-27"></use>
        </mask>
    </defs>
    <g id="Welcome" stroke="none" stroke-width="1" fill="none" fill-rule="evenodd">
        <g id="map-marker-sprite" stroke-width="2">
            <use id="Oval-2-Copy-14" stroke="#1D6098" mask="url(#mask-2)" fill="#3F88C5" xlink:href="#path-1"></use>
            <use id="Oval-2-Copy-15" stroke="#E9E100" mask="url(#mask-4)" fill="#FFFC31" xlink:href="#path-3"></use>
            <use id="Oval-2-Copy-16" stroke="#3147AE" mask="url(#mask-6)" fill="#0F1D5D" xlink:href="#path-5"></use>
            <use id="Oval-2-Copy-17" stroke="#960037" mask="url(#mask-8)" fill="#DC135D" xlink:href="#path-7"></use>
            <use id="Oval-2-Copy-18" stroke="#43E965" mask="url(#mask-10)" fill="#85FF9E" xlink:href="#path-9"></use>
            <use id="Oval-2-Copy-19" stroke="#A4D21E" mask="url(#mask-12)" fill="#C2E755" xlink:href="#path-11"></use>
            <use id="Oval-2-Copy-20" stroke="#12792D" mask="url(#mask-14)" fill="#159C39" xlink:href="#path-13"></use>
            <use id="Oval-2-Copy-21" stroke="#AB0084" mask="url(#mask-16)" fill="#E637BF" xlink:href="#path-15"></use>
            <use id="Oval-2-Copy-22" stroke="#39E1AD" mask="url(#mask-18)" fill="#A6F4DC" xlink:href="#path-17"></use>
            <use id="Oval-2-Copy-23" stroke="#A2A9D6" mask="url(#mask-20)" fill="#E9EBF8" xlink:href="#path-19"></use>
            <use id="Oval-2-Copy-24" stroke="#5B998A" mask="url(#mask-22)" fill="#8BBEB2" xlink:href="#path-21"></use>
            <use id="Oval-2-Copy-25" stroke="#FFA621" mask="url(#mask-24)" fill="#FFBF00" xlink:href="#path-23"></use>
            <use id="Oval-2-Copy-26" stroke="#805D79" mask="url(#mask-26)" fill="#AF90A9" xlink:href="#path-25"></use>
            <use id="Oval-2-Copy-27" stroke="#CE4114" mask="url(#mask-28)" fill="#DE6E4B" xlink:href="#path-27"></use>
        </g>
    </g>
</svg>