<?xml version="1.0" encoding="UTF-8" standalone="no"?>
<svg width="25px" height="36px" viewBox="0 0 25 36" version="1.1" xmlns="http://www.w3.org/2000/svg" xmlns:xlink="http://www.w3.org/1999/xlink">
    <!-- Generator: Sketch 39.1 (31720) - http://www.bohemiancoding.com/sketch -->
    <title>Map Marker</title>
    <desc>Created with Sketch.</desc>
    <defs></defs>
    <g id="Welcome" stroke="none" stroke-width="1" fill="none" fill-rule="evenodd">
        <g id="Map-Marker" fill="#292A2F">
            <path d="M12.4975935,6.60253592 C9.65103654,6.58732132 7.37930626,8.89233354 7.31202919,11.6478406 C7.24285029,14.4744284 9.48795502,16.9044857 12.3982231,16.9484654 C15.3557992,16.9931583 17.624439,14.6225331 17.6608114,11.8520491 C17.6993233,8.9325096 15.33583,6.59587953 12.4975935,6.60253592 M12.5004462,36 C12.247028,35.7463441 12.0126281,35.5193137 11.7865486,35.2842005 C10.1837853,33.6162998 8.68871295,31.8563982 7.2961014,30.0097259 C5.59634507,27.7553497 4.065138,25.3939959 2.8004242,22.8659947 C1.84665882,20.9596526 1.06286909,18.9879352 0.557459021,16.9125684 C0.221073677,15.5306546 0.0194801983,14.1309112 0.00117513007,12.7052555 C-0.0342463655,9.95117476 0.730762849,7.4424295 2.34255976,5.21396575 C4.23440045,2.59800509 6.77048444,0.906331514 9.93797443,0.275876438 C13.9850586,-0.529784292 17.6163562,0.430875197 20.742957,3.13550846 C22.7812382,4.89850048 24.0737662,7.13219426 24.6742675,9.76099223 C24.9324403,10.8913896 25.0184979,12.0374771 24.9552622,13.1952132 C24.8440054,15.2280267 24.3264712,17.1676507 23.6144754,19.0623442 C22.821652,21.172657 21.7982323,23.1705245 20.6471525,25.1049185 C18.7952502,28.2167801 16.6604513,31.1258596 14.3285758,33.8925399 C13.7333045,34.5988302 13.1185395,35.2884796 12.5004462,36" id="Page-1"></path>
        </g>
    </g>
</svg>
